#N canvas 0 0 292 288 10;
#X obj 10 9 inlet~;
#X obj 10 116 outlet~;
#X obj 170 34 loadbang;
#X obj 170 126 until;
#X obj 170 147 f;
#X msg 170 55 bang;
#X obj 170 76 t b b;
#X msg 213 105 0;
#X obj 170 168 t f f;
#X obj 170 231 expr tanh($f1);
#X obj 170 252 tabwrite \$0/tanh;
#X obj 196 147 + 1;
#X obj 170 11 table \$0/tanh 512;
#X msg 170 105 512;
#X obj 170 189 / 64;
#X obj 170 210 - 4;
#X obj 10 30 clip~ -4 4;
#X obj 10 95 tabread4~ \$0/tanh;
#X obj 10 53 *~ 64;
#X obj 10 74 +~ 256;
#X connect 0 0 16 0;
#X connect 2 0 5 0;
#X connect 3 0 4 0;
#X connect 4 0 8 0;
#X connect 4 0 11 0;
#X connect 5 0 6 0;
#X connect 6 0 13 0;
#X connect 6 1 7 0;
#X connect 7 0 4 1;
#X connect 8 0 14 0;
#X connect 8 1 10 1;
#X connect 9 0 10 0;
#X connect 11 0 4 1;
#X connect 13 0 3 0;
#X connect 14 0 15 0;
#X connect 15 0 9 0;
#X connect 16 0 18 0;
#X connect 17 0 1 0;
#X connect 18 0 19 0;
#X connect 19 0 17 0;
