#N canvas 333 140 622 300 10;
#X declare -path rj;
#X declare -path .;
#X obj 463 7 samples;
#X obj 8 104 core acid;
#X obj 56 278 dac~;
#X obj 14 216 random-stereo-phase;
#X obj 145 215 random-stereo-phase;
#X obj 517 8 loadbang;
#X obj 517 127 f;
#X obj 549 127 + 1;
#X obj 517 107 metro 124;
#X obj 517 49 t b b;
#X msg 549 70 \; pd dsp 1 \;;
#X msg 517 70 1;
#X msg 517 29 bang;
#X obj 517 150 s acid/tick;
#X obj 47 159 *~ 1;
#X text 107 161 <- drums;
#X text 116 131 <- acid;
#X obj 60 132 *~ 1;
#X msg 6 28 \; acid/makenew bang \; acid/beat-volume 64 \; acid/acid-volume
64 \;;
#X obj 491 273 s SEED;
#X obj 536 273 seededrandom;
#X obj 142 8 r newacid;
#X obj 252 8 r newbeats;
#X obj 396 8 r speaker;
#X obj 281 274 writesf~ 2;
#X obj 281 185 r record;
#X msg 290 249 stop;
#X obj 290 228 r stop;
#X msg 281 206 open /sdcard/GarageAcidLab/recording.wav \, start;
#X obj 6 6 loadbang;
#X msg 252 29 acid/pickbeat bang \; acid/picksamples bang \;;
#X connect 1 3 14 0;
#X connect 1 4 17 0;
#X connect 3 0 2 0;
#X connect 3 1 2 1;
#X connect 4 0 2 0;
#X connect 4 1 2 1;
#X connect 5 0 12 0;
#X connect 6 0 7 0;
#X connect 6 0 13 0;
#X connect 7 0 6 1;
#X connect 8 0 6 0;
#X connect 9 0 11 0;
#X connect 9 1 10 0;
#X connect 11 0 8 0;
#X connect 12 0 9 0;
#X connect 14 0 3 0;
#X connect 17 0 4 0;
#X connect 22 0 30 0;
#X connect 25 0 28 0;
#X connect 26 0 24 0;
#X connect 27 0 26 0;
#X connect 28 0 24 0;
#X connect 29 0 18 0;
