#N canvas 369 405 622 300 10;
#X obj 563 36 samples;
#X obj 56 278 dac~;
#X obj 14 216 random-stereo-phase;
#X obj 145 215 random-stereo-phase;
#X obj 517 8 loadbang;
#X obj 517 127 f;
#X obj 549 127 + 1;
#X obj 517 107 metro 124;
#X obj 517 49 t b b;
#X msg 549 70 \; pd dsp 1 \;;
#X msg 517 70 1;
#X msg 517 29 bang;
#X obj 517 150 s acid/tick;
#X obj 8 164 *~ 1;
#X text 41 169 <- drums;
#X text 199 168 <- acid;
#X obj 164 168 *~ 1;
#X obj 491 273 s SEED;
#X obj 536 273 seededrandom;
#X obj 260 8 r newacid;
#X obj 367 7 r newbeats;
#X obj 138 104 r speaker;
#X obj 281 274 writesf~ 2;
#X obj 281 185 r record;
#X msg 290 249 stop;
#X obj 290 228 r stop;
#X msg 281 206 open /sdcard/GarageAcidLab/recording.wav \, start;
#X obj 6 6 loadbang;
#X msg 6 28 \; acid/makenew bang \; acid/beat-volume 64 \; acid/acid-volume
64 \; webkit init \;;
#N canvas 0 0 450 300 speakers 0;
#X obj 148 76 route beats acid;
#X obj 66 104 sel true false;
#X obj 174 104 sel true false;
#X msg 66 125 1;
#X msg 106 125 0;
#X msg 174 125 1;
#X msg 214 125 0;
#X obj 148 52 inlet;
#X obj 189 201 outlet;
#X obj 74 201 outlet;
#X connect 0 0 1 0;
#X connect 0 1 2 0;
#X connect 1 0 3 0;
#X connect 1 1 4 0;
#X connect 2 0 5 0;
#X connect 2 1 6 0;
#X connect 3 0 9 0;
#X connect 4 0 9 0;
#X connect 5 0 8 0;
#X connect 6 0 8 0;
#X connect 7 0 0 0;
#X restore 138 125 pd speakers;
#X obj 8 104 drums acid;
#X msg 367 28 \; acid/picksamples bang \; acid/pickbeat bang \; webkit
newbeats \;;
#X connect 2 0 1 0;
#X connect 2 1 1 1;
#X connect 3 0 1 0;
#X connect 3 1 1 1;
#X connect 4 0 11 0;
#X connect 5 0 6 0;
#X connect 5 0 12 0;
#X connect 6 0 5 1;
#X connect 7 0 5 0;
#X connect 8 0 10 0;
#X connect 8 1 9 0;
#X connect 10 0 7 0;
#X connect 11 0 8 0;
#X connect 13 0 2 0;
#X connect 16 0 3 0;
#X connect 20 0 31 0;
#X connect 21 0 29 0;
#X connect 23 0 26 0;
#X connect 24 0 22 0;
#X connect 25 0 24 0;
#X connect 26 0 22 0;
#X connect 27 0 28 0;
#X connect 29 0 13 1;
#X connect 29 1 16 1;
#X connect 30 0 13 0;
