#N canvas 400 218 622 344 10;
#X declare -path rj;
#X declare -path .;
#X obj 563 36 samples;
#X obj 144 311 dac~;
#X obj 517 8 loadbang;
#X obj 517 127 f;
#X obj 549 127 + 1;
#X obj 517 107 metro 124;
#X obj 517 49 t b b;
#X msg 549 70 \; pd dsp 1 \;;
#X msg 517 70 1;
#X msg 517 29 bang;
#X obj 164 158 *~ 1;
#X obj 240 8 r newacid;
#X obj 367 7 r newbeats;
#X obj 90 110 r speaker;
#X obj 289 310 writesf~ 2;
#X obj 289 221 r record;
#X msg 298 285 stop;
#X obj 298 264 r stop;
#X msg 289 242 open /sdcard/GarageAcidLab/recording.wav \, start;
#X obj 6 6 loadbang;
#N canvas 0 0 450 300 speakers 0;
#X obj 24 61 route beats acid;
#X obj 24 18 inlet;
#X obj 70 84 outlet;
#X obj 24 105 outlet;
#X obj 24 39 list trim;
#X connect 0 0 3 0;
#X connect 0 1 2 0;
#X connect 1 0 4 0;
#X connect 4 0 0 0;
#X restore 90 131 pd speakers;
#X obj 165 111 acid acid;
#X obj 11 110 drums drums;
#X obj 517 187 s acid/tick;
#X obj 517 148 t f f;
#X obj 544 168 s drums/tick;
#X msg 6 28 \; drums/beat-volume 64 \; acid/acid-volume 64 \; acid/rez
5 \; acid/cutoff 64 \; webkit init \;;
#X obj 240 75 r kaos;
#X obj 240 96 list trim;
#X obj 240 117 unpack f f;
#X obj 240 159 s acid/cutoff;
#N canvas 0 0 450 300 mix-drums 0;
#X obj 11 10 inlet~;
#X obj 61 10 inlet~;
#X obj 111 10 inlet~;
#X obj 161 10 inlet;
#X obj 8 80 *~ 1;
#X obj 68 80 *~ 1;
#X obj 128 80 *~ 1;
#X obj 357 19 r \$1/makenew;
#X obj 10 264 outlet~;
#X obj 373 262 outlet~;
#X connect 0 0 4 0;
#X connect 1 0 5 0;
#X connect 2 0 6 0;
#X connect 3 0 6 1;
#X connect 3 0 5 1;
#X connect 3 0 4 1;
#X connect 4 0 9 0;
#X connect 4 0 8 0;
#X connect 5 0 9 0;
#X connect 5 0 8 0;
#X connect 6 0 9 0;
#X connect 6 0 8 0;
#X restore 11 176 pd mix-drums;
#X msg 240 30 \; newseed bang \; acid/makenew bang \;;
#X msg 367 28 \; newseed bang \; drums/picksamples bang \; drums/pickbeat
bang \; webkit newbeats \;;
#N canvas 0 0 450 300 seeding 0;
#X obj 98 60 timer;
#X obj 125 38 r newseed;
#X obj 98 81 s SEED;
#X connect 0 0 2 0;
#X connect 1 0 0 1;
#X restore 151 7 pd seeding;
#X obj 187 271 tanh~;
#X obj 99 270 tanh~;
#X obj 99 251 autocompress~;
#N canvas 0 0 450 300 swing 0;
#X obj 16 56 seededrandom 10;
#X obj 16 75 sel 0;
#X msg 49 98 0;
#X msg 16 36 bang;
#X msg 15 98 30;
#X obj 5 147 s acid/swing;
#X obj 5 168 s drums/swing;
#X obj 117 15 r acid/makenew;
#X obj 16 15 r drums/makenew;
#X connect 0 0 1 0;
#X connect 1 0 4 0;
#X connect 1 1 2 0;
#X connect 2 0 5 0;
#X connect 2 0 6 0;
#X connect 3 0 0 0;
#X connect 4 0 5 0;
#X connect 4 0 6 0;
#X connect 7 0 3 0;
#X connect 8 0 3 0;
#X restore 155 29 pd swing;
#X obj 187 252 autocompress~;
#N canvas 0 0 450 300 acidlimit 0;
#X obj 18 74 * 127;
#X obj 18 95 outlet;
#X obj 18 11 inlet;
#X obj 18 53 + 0.3;
#X obj 18 32 * 0.6;
#X connect 0 0 1 0;
#X connect 2 0 4 0;
#X connect 3 0 0 0;
#X connect 4 0 3 0;
#X restore 240 138 pd acidlimit;
#N canvas 0 0 450 300 delay 0;
#X obj 14 11 inlet~;
#X obj 14 172 outlet~;
#X connect 0 0 1 0;
#X restore 164 181 pd delay;
#X obj 164 201 autocompress~;
#X obj 321 138 s delay;
#X obj 164 222 *~ 0.5;
#X connect 2 0 9 0;
#X connect 3 0 4 0;
#X connect 3 0 24 0;
#X connect 4 0 3 1;
#X connect 5 0 3 0;
#X connect 6 0 8 0;
#X connect 6 1 7 0;
#X connect 8 0 5 0;
#X connect 9 0 6 0;
#X connect 10 0 41 0;
#X connect 11 0 32 0;
#X connect 12 0 33 0;
#X connect 13 0 20 0;
#X connect 15 0 18 0;
#X connect 16 0 14 0;
#X connect 17 0 16 0;
#X connect 18 0 14 0;
#X connect 19 0 26 0;
#X connect 20 0 31 3;
#X connect 20 1 10 1;
#X connect 21 0 10 0;
#X connect 22 0 31 0;
#X connect 22 1 31 1;
#X connect 22 2 31 2;
#X connect 24 0 23 0;
#X connect 24 1 25 0;
#X connect 27 0 28 0;
#X connect 28 0 29 0;
#X connect 29 0 40 0;
#X connect 29 1 43 0;
#X connect 31 0 37 0;
#X connect 31 1 39 0;
#X connect 35 0 1 1;
#X connect 35 0 14 1;
#X connect 36 0 1 0;
#X connect 36 0 14 0;
#X connect 37 0 36 0;
#X connect 39 0 35 0;
#X connect 40 0 30 0;
#X connect 41 0 42 0;
#X connect 42 0 44 0;
#X connect 44 0 37 0;
#X connect 44 0 39 0;
