#N canvas 144 32 1028 470 10;
#X declare -path rj;
#X declare -path .;
#X text 4 3 Garage Acid Lab \, copyright 2009 Chris McCormick;
#X obj 609 125 s_blsaw;
#X obj 908 5 declare -path rj;
#X obj 690 125 s_blsquare;
#X text 354 155 mic comes into effects chain too;
#N canvas 134 120 460 631 sequencer 0;
#X obj 195 604 outlet envelope;
#X obj 26 592 mtof;
#X obj 26 611 outlet;
#N canvas 375 304 454 375 \$1/notes 0;
#X obj 18 13 inlet;
#X obj 18 349 outlet;
#X obj 50 141 tabread \$1/notes;
#X obj 18 52 t f f;
#X obj 324 155 * 12;
#X obj 51 327 +;
#X obj 18 33 mod 16;
#X obj 51 305 + 52;
#X obj 18 121 sel 0;
#X msg 18 143 0;
#X obj 324 134 tabread \$1/octave;
#X obj 51 242 +;
#X obj 51 283 mod 12;
#X obj 18 98 tabread \$1/sequence;
#X obj 82 205 - 1;
#X obj 50 183 sel 0;
#X msg 50 205 0;
#X obj 113 205 r \$1/rootnote;
#X obj 51 262 + 0;
#X obj 110 232 r \$1/rootnoteoffset;
#X connect 0 0 6 0;
#X connect 2 0 15 0;
#X connect 3 0 13 0;
#X connect 3 1 10 0;
#X connect 4 0 5 1;
#X connect 5 0 1 0;
#X connect 6 0 3 0;
#X connect 7 0 5 0;
#X connect 8 0 9 0;
#X connect 8 1 2 0;
#X connect 9 0 1 0;
#X connect 10 0 4 0;
#X connect 11 0 18 0;
#X connect 12 0 7 0;
#X connect 13 0 8 0;
#X connect 14 0 11 0;
#X connect 15 0 16 0;
#X connect 15 1 14 0;
#X connect 16 0 1 0;
#X connect 17 0 11 1;
#X connect 18 0 12 0;
#X connect 19 0 18 1;
#X restore 26 477 pd \$1/notes;
#X obj 26 498 t f f;
#X obj 195 557 > 0;
#N canvas 375 304 450 300 slide 0;
#X obj 19 13 inlet;
#X obj 19 33 mod 16;
#X obj 19 77 outlet;
#X obj 19 55 tabread \$1/slide;
#X connect 0 0 1 0;
#X connect 1 0 3 0;
#X connect 3 0 2 0;
#X restore 248 525 pd slide;
#X obj 196 582 pack f f;
#X obj 26 520 moses 1;
#X obj 26 453 t f f f;
#N canvas 375 304 450 300 accent 0;
#X obj 19 13 inlet;
#X obj 19 33 mod 16;
#X obj 19 77 outlet;
#X obj 19 55 tabread \$1/accent;
#X connect 0 0 1 0;
#X connect 1 0 3 0;
#X connect 3 0 2 0;
#X restore 332 525 pd accent;
#X obj 193 60 seededrandom 10;
#X obj 193 79 sel 0;
#X obj 55 140 pipe;
#X msg 226 102 0;
#X msg 193 40 bang;
#X obj 25 35 t f f;
#X obj 56 55 mod 2;
#X obj 25 76 swap;
#X obj 25 117 route 0 1;
#X obj 25 96 pack f f;
#X msg 192 102 30;
#X obj 332 604 outlet \$1/accent;
#X obj 25 9 r \$1/tick;
#X obj 121 362 s \$0/tick;
#X obj 193 19 r \$1/makenew;
#X obj 361 251 inlet;
#X obj 90 520 * 12;
#X obj 72 541 + 0;
#X obj 120 191 == 0;
#X obj 26 320 spigot 1;
#X obj 58 269 f;
#X obj 120 146 r \$1/sticky;
#X obj 216 146 r \$1/stickyrate;
#X obj 26 164 t f f;
#X obj 58 184 / 1;
#X obj 58 206 int;
#X obj 58 228 change;
#X msg 58 249 bang;
#X obj 120 168 t f f f;
#X obj 166 191 != 0;
#X obj 58 296 spigot 0;
#X obj 112 19 r \$1/swing;
#X obj 78 611 s \$0/notestream;
#X obj 72 562 t f f;
#X obj 26 390 / 1;
#X obj 44 365 r \$1/speed;
#X obj 26 411 int;
#X obj 26 432 change;
#X obj 26 340 t f f;
#X connect 1 0 2 0;
#X connect 3 0 4 0;
#X connect 4 0 8 0;
#X connect 4 1 5 0;
#X connect 5 0 7 0;
#X connect 6 0 7 1;
#X connect 7 0 0 0;
#X connect 8 1 28 0;
#X connect 9 0 3 0;
#X connect 9 1 6 0;
#X connect 9 2 10 0;
#X connect 10 0 22 0;
#X connect 11 0 12 0;
#X connect 12 0 21 0;
#X connect 12 1 14 0;
#X connect 13 0 34 0;
#X connect 14 0 13 1;
#X connect 15 0 11 0;
#X connect 16 0 18 0;
#X connect 16 1 17 0;
#X connect 17 0 18 1;
#X connect 18 0 20 0;
#X connect 18 1 20 1;
#X connect 19 0 34 0;
#X connect 19 1 13 0;
#X connect 20 0 19 0;
#X connect 21 0 13 1;
#X connect 23 0 16 0;
#X connect 25 0 15 0;
#X connect 26 0 27 0;
#X connect 27 0 28 1;
#X connect 28 0 44 0;
#X connect 29 0 30 1;
#X connect 30 0 49 0;
#X connect 31 0 41 0;
#X connect 32 0 39 0;
#X connect 33 0 35 1;
#X connect 34 0 30 0;
#X connect 34 1 35 0;
#X connect 35 0 36 0;
#X connect 36 0 37 0;
#X connect 37 0 38 0;
#X connect 38 0 31 0;
#X connect 39 0 29 0;
#X connect 39 1 31 1;
#X connect 39 2 40 0;
#X connect 40 0 41 1;
#X connect 41 0 49 0;
#X connect 42 0 13 1;
#X connect 44 0 1 0;
#X connect 44 1 43 0;
#X connect 45 0 47 0;
#X connect 46 0 45 1;
#X connect 47 0 48 0;
#X connect 48 0 9 0;
#X connect 49 0 45 0;
#X connect 49 1 24 0;
#X restore 610 33 pd sequencer;
#X msg 739 80 0.5;
#X obj 739 60 loadbang;
#X obj 623 303 vcf~;
#X obj 648 283 t f f;
#X obj 623 327 *~;
#X obj 680 303 *~ 0.6;
#X obj 554 226 line~;
#X msg 554 203 \$1 5;
#N canvas 106 293 450 300 envelope 0;
#X obj 12 10 inlet;
#X obj 12 275 outlet~;
#X obj 12 242 vline~;
#X obj 340 17 inlet decay;
#X obj 220 242 line;
#X obj 220 270 outlet;
#X obj 12 53 unpack f f;
#X obj 79 74 * 0.5;
#X obj 12 129 150;
#X obj 13 75 sel 1;
#X obj 12 149 pack f f;
#X obj 12 174 t a a;
#X msg 13 210 1 7 \, \$2 \$1 7;
#X msg 219 217 1 \, \$2 \$1;
#X obj 12 31 t a a;
#X obj 163 54 ||;
#X obj 164 108 sel 0;
#X msg 164 129 0 7;
#X connect 0 0 14 0;
#X connect 2 0 1 0;
#X connect 3 0 8 1;
#X connect 4 0 5 0;
#X connect 6 0 9 0;
#X connect 6 1 7 0;
#X connect 7 0 10 1;
#X connect 8 0 10 0;
#X connect 9 0 8 0;
#X connect 10 0 11 0;
#X connect 11 0 12 0;
#X connect 11 1 13 0;
#X connect 12 0 2 0;
#X connect 13 0 4 0;
#X connect 14 0 6 0;
#X connect 14 1 15 0;
#X connect 15 0 16 0;
#X connect 16 0 17 0;
#X connect 17 0 2 0;
#X connect 17 0 4 0;
#X restore 672 177 pd envelope;
#X obj 623 215 *~;
#X obj 816 177 r \$0-envmod;
#X obj 747 227 * 5;
#X obj 747 251 +;
#X text 861 209 base rez;
#N canvas 0 22 450 300 (subpatch) 0;
#X array \$1/slide 16 float 2;
#X coords 0 1 15 0 50 25 1;
#X restore 263 51 graph;
#N canvas 0 22 450 300 (subpatch) 0;
#X array \$1/accent 16 float 2;
#X coords 0 1 15 0 50 25 1;
#X restore 325 51 graph;
#N canvas 0 22 450 300 (subpatch) 0;
#X array \$1/octave 17 float 2;
#X coords 0 1 15 -1 50 25 1;
#X restore 393 51 graph;
#N canvas 0 22 450 300 (subpatch) 0;
#X array \$1/sequence 16 float 2;
#X coords 0 4 16 0 50 25 1;
#X restore 462 50 graph;
#X obj 672 221 *~ 12;
#X obj 635 258 mtof~;
#X msg 127 141 bang;
#N canvas 46 156 450 300 portamento 0;
#X obj 11 9 inlet;
#X obj 85 10 inlet;
#X obj 85 31 unpack f f;
#X obj 11 121 line~;
#X obj 11 145 outlet~;
#X obj 240 8 inlet decay;
#X obj 11 101 pack f f;
#X obj 177 32 / 2;
#X obj 152 52 * 75;
#X connect 0 0 6 0;
#X connect 1 0 2 0;
#X connect 2 1 8 0;
#X connect 3 0 4 0;
#X connect 5 0 7 0;
#X connect 6 0 3 0;
#X connect 7 0 8 1;
#X connect 8 0 6 1;
#X restore 609 71 pd portamento;
#X obj 623 347 hip~ 5;
#X obj 815 75 seededrandom 200;
#X obj 815 115 + 1;
#X obj 815 95 + 50;
#X obj 766 176 + 1;
#X obj 766 199 * 5;
#X obj 703 203 * 12;
#N canvas 0 22 450 300 squaresaw 0;
#X obj 28 250 outlet~;
#X obj 177 49 seededrandom 2;
#X obj 70 126 *~;
#X obj 185 127 *~;
#X obj 213 72 != 0;
#X obj 167 73 == 0;
#X obj 70 17 inlet~;
#X obj 249 244 outlet~;
#X obj 177 19 r \$1/makenew;
#X obj 261 19 r \$1/pickwave;
#X connect 1 0 4 0;
#X connect 1 0 5 0;
#X connect 2 0 0 0;
#X connect 3 0 7 0;
#X connect 4 0 3 1;
#X connect 5 0 2 1;
#X connect 6 0 2 0;
#X connect 6 0 3 0;
#X connect 8 0 1 0;
#X connect 9 0 1 0;
#X restore 609 101 pd squaresaw;
#X obj 623 416 outlet~;
#N canvas 257 183 443 446 GENERATE 0;
#X msg 18 -7 bang;
#N canvas 188 252 446 334 pick-octaveslide 0;
#X obj 30 143 until;
#X msg 30 121 16;
#X obj 11 12 inlet;
#X obj 11 33 t b b;
#X obj 51 97 seededrandom 100;
#X text 118 77 how slidy?;
#X obj 30 164 seededrandom 100;
#X obj 30 187 >;
#X obj 31 217 list append;
#X obj 119 217 t l;
#X obj 11 75 t b b b b;
#X obj 12 244 list;
#X obj 255 119 until;
#X msg 255 97 16;
#X obj 255 140 seededrandom 100;
#X obj 255 163 >;
#X obj 261 245 list append;
#X obj 349 241 t l;
#X obj 236 51 t b b b b;
#X obj 237 265 list;
#X text 345 55 how octavy?;
#X obj 237 284 filltable \$1/octave;
#X obj 12 273 filltable \$1/slide;
#X obj 80 26 r \$1/pickslide;
#X obj 281 27 r \$1/pickoctave;
#X obj 255 183 sel 0 1;
#X obj 278 203 seededrandom 3;
#X obj 278 224 - 1;
#X msg 246 204 0;
#X obj 276 73 seededrandom 50;
#X connect 0 0 6 0;
#X connect 1 0 0 0;
#X connect 2 0 3 0;
#X connect 3 0 10 0;
#X connect 3 1 18 0;
#X connect 4 0 7 1;
#X connect 6 0 7 0;
#X connect 7 0 8 0;
#X connect 8 0 9 0;
#X connect 8 0 11 1;
#X connect 9 0 8 1;
#X connect 10 0 11 0;
#X connect 10 1 1 0;
#X connect 10 2 4 0;
#X connect 10 3 8 1;
#X connect 11 0 22 0;
#X connect 12 0 14 0;
#X connect 13 0 12 0;
#X connect 14 0 15 0;
#X connect 15 0 25 0;
#X connect 16 0 17 0;
#X connect 16 0 19 1;
#X connect 17 0 16 1;
#X connect 18 0 19 0;
#X connect 18 1 13 0;
#X connect 18 2 29 0;
#X connect 18 3 16 1;
#X connect 19 0 21 0;
#X connect 23 0 10 0;
#X connect 24 0 18 0;
#X connect 25 0 28 0;
#X connect 25 1 26 0;
#X connect 26 0 27 0;
#X connect 27 0 16 0;
#X connect 28 0 16 0;
#X connect 29 0 15 1;
#X restore 29 309 pd pick-octaveslide;
#N canvas 311 172 446 438 pick-accent 0;
#X obj 11 12 inlet;
#X obj 57 226 until;
#X text 125 164 how many accents?;
#X obj 57 249 seededrandom 16;
#X obj 11 163 seededrandom 9;
#X obj 11 183 moses 3;
#X obj 57 203 - 2;
#X obj 31 38 r pickaccent;
#X obj 11 75 t b b;
#X msg 42 126 \; \$1/accent const 0 \;;
#X obj 43 99 symbol \$1;
#X obj 57 271 t f b;
#X obj 57 328 pack f s;
#X obj 110 306 symbol \$1;
#X msg 57 353 \; \$2/accent \$1 1 \;;
#X connect 0 0 8 0;
#X connect 1 0 3 0;
#X connect 3 0 11 0;
#X connect 4 0 5 0;
#X connect 5 1 6 0;
#X connect 6 0 1 0;
#X connect 7 0 8 0;
#X connect 8 0 4 0;
#X connect 8 1 10 0;
#X connect 10 0 9 0;
#X connect 11 0 12 0;
#X connect 11 1 13 0;
#X connect 12 0 14 0;
#X connect 13 0 12 1;
#X restore 30 362 pd pick-accent;
#X obj 18 -29 r \$1/makenew;
#X obj 29 284 r \$1/makenew;
#X obj 30 337 r \$1/makenew;
#X obj 18 28 t b b b;
#N canvas 610 249 498 398 \$1/picknotes 0;
#X obj 8 10 inlet;
#X text 82 37 first pick a four-note sequence;
#X obj 31 83 until;
#X msg 31 62 4;
#X obj 31 104 seededrandom 4;
#X text 95 121 one in four change of having a zero;
#X obj 63 211 list append;
#X msg 31 146 0;
#X obj 31 124 sel 0;
#X msg 63 146 bang;
#X obj 63 189 + 1;
#X obj 9 238 list;
#N canvas 0 22 450 300 weight-notes 0;
#X obj 5 10 inlet;
#X obj 5 35 seededrandom 3;
#X obj 5 59 sel 0 1 2;
#X obj 169 90 seededrandom 12;
#X obj 40 90 seededrandom 2;
#X obj 40 111 sel 0 1;
#X msg 40 134 3;
#X msg 76 135 7;
#X msg 5 89 5;
#X obj 70 277 outlet;
#X text 48 6 weight 5ths highest \, 3rds and 7ths next \, everything
else lowest;
#X connect 0 0 1 0;
#X connect 1 0 2 0;
#X connect 2 0 8 0;
#X connect 2 1 4 0;
#X connect 2 2 3 0;
#X connect 3 0 9 0;
#X connect 4 0 5 0;
#X connect 5 0 6 0;
#X connect 5 1 7 0;
#X connect 6 0 9 0;
#X connect 7 0 9 0;
#X connect 8 0 9 0;
#X restore 63 167 pd weight-notes;
#X obj 9 285 outlet;
#X obj 8 37 t b b b b;
#X obj 151 211 t l;
#X connect 0 0 14 0;
#X connect 2 0 4 0;
#X connect 3 0 2 0;
#X connect 4 0 8 0;
#X connect 6 0 11 1;
#X connect 6 0 15 0;
#X connect 7 0 6 0;
#X connect 8 0 7 0;
#X connect 8 1 9 0;
#X connect 9 0 12 0;
#X connect 10 0 6 0;
#X connect 11 0 13 0;
#X connect 12 0 10 0;
#X connect 14 0 11 0;
#X connect 14 1 3 0;
#X connect 14 2 6 1;
#X connect 15 0 6 1;
#X restore 178 139 pd \$1/picknotes;
#N canvas 775 22 479 711 \$1/picksequence 0;
#X obj 13 15 inlet newnotes;
#X obj 12 481 outlet;
#X text 108 149 for 16 beats play through the four notes;
#X obj 36 151 until;
#X obj 36 175 f;
#X obj 68 175 + 1;
#X obj 37 373 int;
#X msg 86 132 0;
#X obj 179 223 seededrandom 3;
#X obj 178 265 + 1;
#X obj 179 243 t f f;
#X obj 12 460 list;
#X obj 179 179 t b b b;
#X obj 281 250 f;
#X obj 299 224 + 1;
#X obj 281 277 sel;
#X msg 202 201 0;
#X obj 37 435 list append;
#X obj 126 436 t l;
#X obj 37 343 / 1;
#X text 182 163 this block makes repeating chunks;
#X obj 178 309 seededrandom;
#X obj 178 330 sel 0 1;
#X obj 36 69 t b b b b b b;
#X msg 124 111 1;
#X obj 177 286 t b f;
#X obj 178 352 f;
#X obj 13 35 t b b;
#X obj 37 393 mod 4;
#X obj 36 89 seededrandom 8;
#X text 142 89 <- between 16 and 24 beats (first 16 are used);
#X obj 36 294 +;
#X obj 36 195 t f b b;
#X obj 59 234 seededrandom 16;
#X obj 36 110 + 16;
#X connect 0 0 27 0;
#X connect 3 0 4 0;
#X connect 4 0 5 0;
#X connect 4 0 32 0;
#X connect 5 0 4 1;
#X connect 6 0 28 0;
#X connect 7 0 4 1;
#X connect 8 0 10 0;
#X connect 9 0 25 0;
#X connect 10 0 9 0;
#X connect 10 1 15 1;
#X connect 11 0 1 0;
#X connect 12 0 8 0;
#X connect 12 1 16 0;
#X connect 13 0 14 0;
#X connect 13 0 15 0;
#X connect 14 0 13 1;
#X connect 15 0 12 0;
#X connect 16 0 13 1;
#X connect 17 0 18 0;
#X connect 17 0 11 1;
#X connect 18 0 17 1;
#X connect 19 0 6 0;
#X connect 21 0 22 0;
#X connect 22 0 26 0;
#X connect 23 0 29 0;
#X connect 23 1 7 0;
#X connect 23 2 17 1;
#X connect 23 3 12 0;
#X connect 23 5 24 0;
#X connect 24 0 19 1;
#X connect 25 0 21 0;
#X connect 25 1 26 1;
#X connect 26 0 19 1;
#X connect 27 0 11 0;
#X connect 27 1 23 0;
#X connect 28 0 17 0;
#X connect 29 0 34 0;
#X connect 31 0 19 0;
#X connect 32 0 31 0;
#X connect 32 1 33 0;
#X connect 32 2 13 0;
#X connect 33 0 31 1;
#X connect 34 0 3 0;
#X restore 18 139 pd \$1/picksequence;
#X obj 18 213 filltable \$1/sequence;
#N canvas 557 250 450 300 \$1/pickrootnote 0;
#X obj 5 7 inlet;
#X obj 6 50 seededrandom 12;
#X obj 6 71 outlet;
#X connect 0 0 1 0;
#X connect 1 0 2 0;
#X restore 300 139 pd \$1/pickrootnote;
#X obj 178 219 filltable \$1/notes;
#X obj 189 74 r \$1/picknotes;
#X obj 308 74 r \$1/pickrootnote;
#X obj 43 76 r \$1/picksequence;
#X obj 255 7 r \$1/newarrangement;
#X obj 178 164 s \$1/goodnotes;
#X obj 178 196 r \$1/goodnotes;
#X obj 300 160 s \$1/rootnote;
#X obj 18 160 s \$1/newsequence;
#X obj 18 192 r \$1/newsequence;
#X connect 0 0 6 0;
#X connect 3 0 0 0;
#X connect 4 0 1 0;
#X connect 5 0 2 0;
#X connect 6 0 8 0;
#X connect 6 1 7 0;
#X connect 6 2 10 0;
#X connect 7 0 16 0;
#X connect 8 0 19 0;
#X connect 10 0 18 0;
#X connect 12 0 7 0;
#X connect 13 0 10 0;
#X connect 14 0 8 0;
#X connect 15 0 8 0;
#X connect 15 0 7 0;
#X connect 15 0 10 0;
#X connect 17 0 11 0;
#X connect 20 0 9 0;
#X restore 439 1 pd GENERATE;
#X obj 529 182 r \$1/cutoff;
#X obj 796 210 r \$1/rez;
#X obj 707 338 r \$1/volume;
#X obj 707 358 / 127;
#X obj 127 164 s \$1/makenew;
#X obj 815 25 r \$1/makenew;
#X obj 623 390 *~ 1;
#X obj 610 7 r \$1/globaloctave;
#N canvas 0 22 450 300 (subpatch) 0;
#X array \$1/notes 4 float 2;
#X coords 0 12 4 0 50 25 1;
#X restore 544 50 graph;
#X obj 909 25 r \$1/pickdecay;
#X obj 910 48 declare -path .;
#X obj 623 368 *~ 0.5;
#X connect 1 0 15 0;
#X connect 3 0 15 0;
#X connect 5 0 27 0;
#X connect 5 1 14 0;
#X connect 5 1 27 1;
#X connect 5 2 32 0;
#X connect 6 0 3 1;
#X connect 7 0 6 0;
#X connect 8 0 10 0;
#X connect 9 0 8 2;
#X connect 9 1 11 0;
#X connect 10 0 28 0;
#X connect 11 0 10 1;
#X connect 12 0 25 0;
#X connect 13 0 12 0;
#X connect 14 0 15 1;
#X connect 14 0 24 0;
#X connect 14 1 17 0;
#X connect 15 0 8 0;
#X connect 16 0 33 1;
#X connect 17 0 18 0;
#X connect 18 0 9 0;
#X connect 24 0 25 0;
#X connect 25 0 8 1;
#X connect 26 0 42 0;
#X connect 27 0 35 0;
#X connect 28 0 49 0;
#X connect 29 0 31 0;
#X connect 30 0 27 2;
#X connect 30 0 14 1;
#X connect 31 0 30 0;
#X connect 32 0 33 0;
#X connect 32 0 34 0;
#X connect 33 0 17 1;
#X connect 34 0 24 1;
#X connect 35 0 1 0;
#X connect 35 1 3 0;
#X connect 38 0 13 0;
#X connect 39 0 18 1;
#X connect 40 0 41 0;
#X connect 41 0 44 1;
#X connect 43 0 29 0;
#X connect 44 0 36 0;
#X connect 45 0 5 0;
#X connect 47 0 29 0;
#X connect 49 0 44 0;
