#N canvas 0 0 450 300 10;
#N canvas 40 50 1200 628 breakbeats 0;
#X obj 280 -18 inlet;
#X obj 55 403 outlet~;
#N canvas 568 245 450 300 (subpatch) 0;
#X array \$1/bd-prob 16 float 3;
#A 0 0.99 0.1 0.4 0.01 0.01 0.01 0.01 0.01 0.01 0.01 0.01 0.01 0.01
0.01 0.01 0.2;
#X coords 0 1 15 -1 50 25 1;
#X restore 1129 267 graph;
#N canvas 0 22 450 300 (subpatch) 0;
#X array \$1/sd-prob 16 float 3;
#A 0 0.01 0.01 0.01 0.01 0.99 0.01 0.01 0.01 0.01 0.01 0.01 0.01 0.99
0.01 0.01 0.01;
#X coords 0 1 15 -1 50 25 1;
#X restore 1129 310 graph;
#N canvas 0 22 450 300 (subpatch) 0;
#X array \$1/hh-prob 16 float 3;
#A 0 0.95 0.75 0.95 0.75 0.95 0.75 0.95 0.75 0.95 0.75 0.95 0.75 0.95
0.75 0.95 0.75;
#X coords 0 1 15 -1 50 25 1;
#X restore 1129 353 graph;
#X obj 681 188 t b b;
#X obj 713 230 seededrandom 2;
#X obj 713 250 + 1;
#X obj 713 270 * 8;
#X obj 136 146 *~ 2;
#X obj 280 171 *~ 0.5;
#X obj 164 200 *~;
#X obj 144 32 t f f;
#X obj 222 140 mod 2;
#X obj 223 161 + 0;
#X obj 227 57 + 1;
#X obj 223 182 * 2;
#X obj 222 202 + 0.5;
#X obj 144 13 +;
#X obj 280 47 +;
#X obj 13 13 +;
#X obj 950 -26 loadbang;
#X obj 759 67 seededrandom 2;
#X obj 759 88 sel 0 1;
#X text 847 319 hip hop style;
#X obj 33 198 *~;
#X obj 13 33 t f f;
#X obj 91 138 mod 2;
#X obj 92 159 + 0;
#X obj 96 51 + 1;
#X obj 92 180 * 2;
#X obj 91 200 + 0.5;
#X obj 638 421 t b b;
#X text 686 419 big beat base style;
#X obj 658 92 sel 0;
#X obj 658 71 seededrandom 3;
#N canvas 297 106 470 445 make-fill 0;
#X obj 18 42 inlet;
#X text 13 4 fill happens in the second half of the big beat before
the second snare;
#X obj 18 63 t b b;
#X obj 18 106 until;
#X obj 18 214 seededrandom 5;
#X obj 18 234 sel 0;
#X obj 70 151 f;
#X obj 100 151 + 1;
#X msg 65 85 0;
#X obj 18 126 t b b;
#X msg 50 254 bang;
#X text 156 170 consecutively less likely snare/bass;
#X obj 50 274 seededrandom 3;
#X text 130 269 snare or bass?;
#X obj 50 294 sel 0;
#X obj 70 172 t f f;
#X obj 81 341 f;
#X obj 50 317 f;
#X msg 81 317 bang;
#X obj 101 194 * 2;
#X obj 70 194 + 2;
#X msg 18 85 4;
#X obj 101 214 + 5;
#X msg 192 397 \; \$2/sd-loop \$1 1;
#X msg 21 408 \; \$2/bd-loop \$1 1;
#X obj 192 375 fsdollar \$1;
#X obj 21 386 fsdollar \$1;
#X connect 0 0 2 0;
#X connect 2 0 21 0;
#X connect 2 1 8 0;
#X connect 3 0 9 0;
#X connect 4 0 5 0;
#X connect 5 1 10 0;
#X connect 6 0 7 0;
#X connect 6 0 15 0;
#X connect 7 0 6 1;
#X connect 8 0 6 1;
#X connect 9 0 4 0;
#X connect 9 1 6 0;
#X connect 10 0 12 0;
#X connect 12 0 14 0;
#X connect 14 0 17 0;
#X connect 14 1 18 0;
#X connect 15 0 20 0;
#X connect 15 1 19 0;
#X connect 16 0 25 0;
#X connect 17 0 26 0;
#X connect 18 0 16 0;
#X connect 19 0 22 0;
#X connect 20 0 4 1;
#X connect 21 0 3 0;
#X connect 22 0 16 1;
#X connect 22 0 17 1;
#X connect 25 0 23 0;
#X connect 26 0 24 0;
#X restore 512 524 pd make-fill;
#X text 393 480 do we want fill?;
#X obj 514 501 sel 0;
#X obj 514 481 seededrandom 5;
#X obj 398 41 +;
#X obj 408 139 +~;
#N canvas 618 100 627 510 make-cowbell 0;
#X obj 8 8 inlet;
#X obj 8 29 t b b;
#N canvas 514 124 450 300 trillmaker 0;
#X obj 7 10 inlet;
#X obj 9 95 seededrandom 7;
#X text 21 117 length;
#X text 198 114 offset;
#X obj 82 95 seededrandom 16;
#X obj 49 224 mod 16;
#X obj 49 200 +;
#X obj 49 179 f;
#X obj 79 179 + 1;
#X obj 8 32 t b b b;
#X msg 131 128 0;
#X obj 48 156 until;
#X obj 49 246 fsdollar \$1;
#X msg 49 269 \; \$2/cowbell-loop \$1 1 \;;
#X connect 0 0 9 0;
#X connect 1 0 11 0;
#X connect 4 0 6 1;
#X connect 5 0 12 0;
#X connect 6 0 5 0;
#X connect 7 0 8 0;
#X connect 7 0 6 0;
#X connect 8 0 7 1;
#X connect 9 0 1 0;
#X connect 9 1 4 0;
#X connect 9 2 10 0;
#X connect 10 0 7 1;
#X connect 11 0 7 0;
#X connect 12 0 13 0;
#X restore 8 461 pd trillmaker;
#X obj 8 61 seededrandom 15;
#X obj 8 105 sel 0 1 2 3 4;
#X obj 193 46 symbol \$1;
#X msg 193 66 \; \$1/cowbell-offset 0 \; \$1/cowbell-loop const 0 \;
;
#X obj 96 141 symbol \$1;
#X obj 96 210 symbol \$1;
#X obj 97 288 symbol \$1;
#X obj 97 358 symbol \$1;
#X msg 96 230 \; \$1/cowbell-loop 0 0 0 0 0 0 0 1 0 0 0 0 0 0 0 1 0
\;;
#X msg 96 161 \; \$1/cowbell-loop 0 0 0 0 0 1 0 0 0 0 0 0 0 1 0 0 0
\;;
#X msg 97 308 \; \$1/cowbell-loop 0 0 0 1 0 0 0 1 0 0 0 1 0 0 0 1 0
\;;
#X msg 97 378 \; \$1/cowbell-loop 0 0 0 0 0 0 0 1 0 0 1 0 0 1 0 0 0
0 0 \;;
#X connect 0 0 1 0;
#X connect 1 0 3 0;
#X connect 1 1 5 0;
#X connect 3 0 4 0;
#X connect 4 0 2 0;
#X connect 4 1 10 0;
#X connect 4 2 9 0;
#X connect 4 3 8 0;
#X connect 4 4 7 0;
#X connect 5 0 6 0;
#X connect 7 0 12 0;
#X connect 8 0 11 0;
#X connect 9 0 13 0;
#X connect 10 0 14 0;
#X restore 816 44 pd make-cowbell;
#X obj 405 66 +;
#N canvas 110 305 450 300 cowbell-play 0;
#X obj 11 252 outlet~;
#X obj 314 11 samplerate~ 44100;
#X obj 12 200 vline~;
#X msg 12 179 0 \, 44100 680;
#X obj 12 157 r \$1/cowbell-shot;
#X obj 11 229 tabread4~ cowbell-1;
#X connect 2 0 5 0;
#X connect 3 0 2 0;
#X connect 4 0 3 0;
#X connect 5 0 0 0;
#X restore 408 116 pd cowbell-play;
#X obj 636 36 t b b b b;
#X obj 407 168 *~ 0.75;
#X obj 249 308 *~ 1;
#X obj 274 266 r \$1/hh-volume;
#X obj 379 309 *~ 1;
#X obj 274 287 / 127;
#X obj 404 266 r \$1/hh-volume;
#X obj 404 287 / 127;
#X obj 151 269 *~ 1;
#X obj 176 248 / 127;
#X obj 26 275 *~ 1;
#X obj 51 254 / 127;
#X obj 51 233 r \$1/bd-volume;
#X obj 176 227 r \$1/sd-volume;
#X obj 144 -13 r \$0/tick;
#X obj 13 -8 r \$0/tick;
#X obj 280 26 r \$0/tick;
#X obj 398 10 r \$0/tick;
#X obj 636 13 r \$1/makenew;
#X obj 680 -29 r \$1/makenew;
#X obj 582 -13 r \$1/pickbeat;
#X obj 781 -29 r \$1/picksamples;
#X obj 950 -5 symbol \$1;
#X msg 950 23 \; \$1/bd-samples 8 \; \$1/sd-samples 8 \; \$1/hh-samples
8 \;;
#X obj 670 445 symbol \$1;
#X msg 670 467 \; \$1/loop-length 16 \; \$1/bd-prob 0 0.99 0.1 0.4
0.01 0.01 0.01 0.01 0.01 0.01 0.01 0.01 0.01 0.01 0.01 0.01 \; \$1/sd-prob
0 0.01 0.01 0.01 0.01 0.99 0.01 0.01 0.01 0.01 0.01 0.01 0.01 0.99
0.01 0.01 0.01 \;;
#X obj 936 566 makeloop \$1/sd \$1;
#X obj 1066 566 makeloop \$1/hh \$1;
#X obj 806 566 makeloop \$1/bd \$1;
#X msg 713 312 \; \$2/loop-length \$1 \;;
#X obj 623 294 symbol \$1;
#X msg 682 347 \; \$1/bd-prob 0 1 0.1 0.5 0.1 0.05 0.1 0.01 0.1 0.8
0.1 0.5 0.1 0.05 0.01 0.01 0.2 \; \$1/sd-prob 0 0 0.05 0.05 0.05 0.95
0 0 0.2 0 0.05 0 0 0.95 0 0 0.1 \;;
#X obj 505 160 symbol \$1;
#X msg 505 181 \; \$1/bd-makeloop bang \; \$1/sd-makeloop bang \; \$1/hh-makeloop
bang \;;
#X obj 713 293 fsdollar \$1;
#X msg 782 128 \; \$1/hh-prob 0 0.95 0.05 0.95 0.05 0.95 0.1 0.95 0.1
0.95 0.05 0.95 0.05 0.95 0.05 0.95 0.05 \;;
#X msg 759 181 \; \$1/hh-prob 0 0.95 0.75 0.95 0.75 0.95 0.75 0.95
0.75 0.95 0.75 0.95 0.75 0.95 0.75 0.95 0.75 \;;
#X obj 782 108 symbol \$1;
#X obj 710 123 symbol \$1;
#X obj 680 -8 s \$1/choose-new-samples;
#X obj 434 39 r \$1/cowbell-offset;
#X obj 136 114 sample sd \$1;
#X obj 404 89 sample-select \$1/cowbell;
#X obj 8 86 sample-select \$1/bd;
#X obj 136 92 sample-select \$1/sd;
#X obj 280 128 sample-select \$1/hh;
#X obj 280 150 sample hh \$1;
#X obj 9 110 sample bd \$1;
#X obj 265 378 outlet~;
#X obj 160 391 outlet~;
#X connect 0 0 19 1;
#X connect 0 0 18 1;
#X connect 0 0 20 1;
#X connect 0 0 40 1;
#X connect 5 0 75 0;
#X connect 5 1 6 0;
#X connect 6 0 7 0;
#X connect 7 0 8 0;
#X connect 8 0 79 0;
#X connect 9 0 11 0;
#X connect 10 0 47 0;
#X connect 11 0 53 0;
#X connect 12 0 89 0;
#X connect 12 1 15 0;
#X connect 13 0 14 0;
#X connect 14 0 16 0;
#X connect 15 0 13 0;
#X connect 16 0 17 0;
#X connect 17 0 11 1;
#X connect 18 0 12 0;
#X connect 19 0 90 0;
#X connect 20 0 26 0;
#X connect 21 0 67 0;
#X connect 22 0 23 0;
#X connect 23 0 83 0;
#X connect 23 1 82 0;
#X connect 25 0 55 0;
#X connect 26 0 88 0;
#X connect 26 1 29 0;
#X connect 27 0 28 0;
#X connect 28 0 30 0;
#X connect 29 0 27 0;
#X connect 30 0 31 0;
#X connect 31 0 25 1;
#X connect 32 0 39 0;
#X connect 32 1 69 0;
#X connect 34 0 5 0;
#X connect 34 1 32 0;
#X connect 35 0 34 0;
#X connect 38 1 36 0;
#X connect 39 0 38 0;
#X connect 40 0 43 0;
#X connect 41 0 46 0;
#X connect 43 0 87 0;
#X connect 44 0 41 0;
#X connect 45 0 77 0;
#X connect 45 1 35 0;
#X connect 45 2 22 0;
#X connect 45 3 42 0;
#X connect 46 0 49 0;
#X connect 47 0 93 0;
#X connect 48 0 50 0;
#X connect 49 0 93 0;
#X connect 50 0 47 1;
#X connect 51 0 52 0;
#X connect 52 0 49 1;
#X connect 53 0 94 0;
#X connect 54 0 53 1;
#X connect 55 0 1 0;
#X connect 56 0 55 1;
#X connect 57 0 56 0;
#X connect 58 0 54 0;
#X connect 59 0 18 0;
#X connect 60 0 20 0;
#X connect 61 0 19 0;
#X connect 62 0 40 0;
#X connect 63 0 45 0;
#X connect 64 0 84 0;
#X connect 65 0 45 0;
#X connect 66 0 84 0;
#X connect 67 0 68 0;
#X connect 69 0 70 0;
#X connect 75 0 76 0;
#X connect 77 0 78 0;
#X connect 79 0 74 0;
#X connect 82 0 80 0;
#X connect 83 0 81 0;
#X connect 85 0 43 1;
#X connect 86 0 9 0;
#X connect 91 0 10 0;
#X connect 92 0 25 0;
#X restore 31 64 pd breakbeats;
#X obj 136 56 r \$1/beat-volume;
#X obj 31 22 r \$1/beatshift;
#X obj 31 165 *~ 1;
#X obj 56 143 / 64;
#X obj 31 209 outlet~;
#X obj 81 165 *~ 1;
#X obj 106 143 / 64;
#X obj 141 165 *~ 1;
#X obj 166 143 / 64;
#X obj 88 210 outlet~;
#X obj 145 210 outlet~;
#X obj 304 168 pipe;
#X obj 274 63 t f f;
#X obj 305 83 mod 2;
#X obj 274 104 swap;
#X obj 274 145 route 0 1;
#X obj 274 124 pack f f;
#X obj 274 37 r \$1/tick;
#X obj 361 47 r \$1/swing;
#X obj 275 192 s \$0/tick;
#X connect 0 0 3 0;
#X connect 0 1 6 0;
#X connect 0 2 8 0;
#X connect 1 0 4 0;
#X connect 1 0 7 0;
#X connect 1 0 9 0;
#X connect 2 0 0 0;
#X connect 3 0 5 0;
#X connect 4 0 3 1;
#X connect 6 0 10 0;
#X connect 7 0 6 1;
#X connect 8 0 11 0;
#X connect 9 0 8 1;
#X connect 12 0 20 0;
#X connect 13 0 15 0;
#X connect 13 1 14 0;
#X connect 14 0 15 1;
#X connect 15 0 17 0;
#X connect 15 1 17 1;
#X connect 16 0 20 0;
#X connect 16 1 12 0;
#X connect 17 0 16 0;
#X connect 18 0 13 0;
#X connect 19 0 12 1;
