#N canvas 650 7 552 711 10;
#X text 425 7 square wave acid;
#X obj 121 261 * 12;
#X text 59 313 <- note to use;
#X obj 9 286 tabread notes;
#X obj 10 621 vcf~ 4;
#X msg 102 553 1 3 \, 0 \$1 3;
#X text 190 406 note length;
#X obj 281 507 vline~;
#X msg 281 484 1 3 \, 0 \$1 3;
#X obj 102 577 vline~;
#X text 477 330 freq dive;
#X obj 102 416 t b b;
#X obj 9 315 +;
#X obj 9 650 *~;
#X obj 102 530 f;
#X obj 10 690 throw~ all;
#X obj 9 554 mtof;
#X obj 156 334 r shake;
#X obj 415 331 r shake;
#X obj 9 579 \$1;
#X obj 232 125 switch~;
#X obj 199 358 seeder;
#X obj 388 309 seeder;
#X obj 178 177 seeder;
#X obj 121 160 r shake;
#X text 194 229 <- randomly select octave;
#X obj 9 12 r tick;
#X obj 9 33 mod 16;
#X obj 118 12 inlet;
#X msg 119 132 set table-\$1;
#X obj 118 33 unpack f f;
#X obj 175 54 == \$2;
#X obj 9 336 t f f;
#X obj 415 352 random 64;
#X obj 415 394 mtof;
#X obj 282 569 *~ 0;
#X obj 415 373 + 64;
#X obj 281 528 *~;
#X obj 281 549 *~;
#X obj 249 12 inlet;
#X obj 249 33 unpack f f;
#X obj 307 54 == \$2;
#X obj 234 80 ||;
#X obj 118 107 spigot;
#X obj 279 89 spigot;
#X obj 9 671 *~ 0.5;
#X obj 121 215 random 2;
#X obj 121 282 + 60;
#X obj 151 405 + 300;
#X obj 429 434 print freqdive;
#X obj 170 262 print octave;
#X obj 121 236 - 1;
#X obj 151 381 random 700;
#X obj 282 389 random 2;
#X obj 282 413 sel 0 1;
#X obj 273 438 f;
#X obj 289 360 seeder;
#X obj 156 355 t b b;
#X msg 302 438 2000;
#X obj 281 465 f;
#X obj 9 245 sel 0;
#X obj 9 224 tabread table-0;
#X obj 36 265 - 1;
#X connect 1 0 47 0;
#X connect 3 0 12 0;
#X connect 4 0 13 0;
#X connect 5 0 9 0;
#X connect 7 0 37 0;
#X connect 7 0 37 1;
#X connect 8 0 7 0;
#X connect 9 0 13 1;
#X connect 11 0 14 0;
#X connect 11 1 59 0;
#X connect 12 0 32 0;
#X connect 13 0 45 0;
#X connect 14 0 5 0;
#X connect 16 0 19 0;
#X connect 17 0 57 0;
#X connect 18 0 33 0;
#X connect 19 0 4 0;
#X connect 21 0 52 0;
#X connect 22 0 33 0;
#X connect 23 0 46 0;
#X connect 24 0 46 0;
#X connect 26 0 27 0;
#X connect 27 0 61 0;
#X connect 28 0 30 0;
#X connect 29 0 61 0;
#X connect 30 0 43 0;
#X connect 30 1 31 0;
#X connect 31 0 42 0;
#X connect 31 0 43 1;
#X connect 32 0 16 0;
#X connect 32 1 11 0;
#X connect 33 0 36 0;
#X connect 34 0 35 1;
#X connect 34 0 49 0;
#X connect 35 0 4 1;
#X connect 36 0 34 0;
#X connect 37 0 38 0;
#X connect 37 0 38 1;
#X connect 38 0 35 0;
#X connect 39 0 40 0;
#X connect 40 0 44 0;
#X connect 40 1 41 0;
#X connect 41 0 42 1;
#X connect 41 0 44 1;
#X connect 42 0 20 0;
#X connect 43 0 29 0;
#X connect 44 0 29 0;
#X connect 45 0 15 0;
#X connect 46 0 51 0;
#X connect 47 0 12 1;
#X connect 48 0 14 1;
#X connect 48 0 55 1;
#X connect 51 0 1 0;
#X connect 51 0 50 0;
#X connect 52 0 48 0;
#X connect 53 0 54 0;
#X connect 54 0 55 0;
#X connect 54 1 58 0;
#X connect 55 0 59 1;
#X connect 56 0 53 0;
#X connect 57 0 53 0;
#X connect 57 1 52 0;
#X connect 58 0 59 1;
#X connect 59 0 8 0;
#X connect 60 1 62 0;
#X connect 61 0 60 0;
#X connect 62 0 3 0;
