#N canvas 650 7 370 711 10;
#X obj 121 261 * 12;
#X text 59 313 <- note to use;
#X obj 9 286 tabread notes;
#X msg 102 553 1 3 \, 0 \$1 3;
#X text 156 507 note length;
#X obj 102 577 vline~;
#X obj 9 315 +;
#X obj 9 650 *~;
#X obj 102 530 f;
#X obj 117 482 random 500;
#X obj 10 690 throw~ all;
#X obj 9 554 mtof;
#X obj 117 459 r shake;
#X obj 9 579 \$1;
#X obj 232 125 switch~;
#X obj 179 459 seeder;
#X obj 178 177 seeder;
#X obj 121 160 r shake;
#X text 181 217 <- randomly select octave;
#X obj 9 12 r tick;
#X obj 9 33 mod 16;
#X obj 118 12 inlet;
#X msg 119 132 set table-\$1;
#X obj 118 33 unpack f f;
#X obj 175 54 == \$2;
#X obj 9 243 sel 0;
#X obj 9 336 t f f;
#X obj 249 12 inlet;
#X obj 249 33 unpack f f;
#X obj 307 54 == \$2;
#X obj 234 80 ||;
#X obj 118 107 spigot;
#X obj 279 89 spigot;
#X obj 9 222 tabread table-0;
#X obj 121 215 random 2;
#X obj 121 282 + 60;
#X obj 117 506 + 300;
#X msg 102 437 bang;
#X obj 171 263 print octave;
#X obj 185 546 print notelength;
#X obj 121 236 - 1;
#X obj 9 671 *~ 0.25;
#X obj 36 263 - 1;
#X connect 0 0 35 0;
#X connect 2 0 6 0;
#X connect 3 0 5 0;
#X connect 5 0 7 1;
#X connect 6 0 26 0;
#X connect 7 0 41 0;
#X connect 8 0 3 0;
#X connect 9 0 36 0;
#X connect 11 0 13 0;
#X connect 12 0 9 0;
#X connect 13 0 7 0;
#X connect 15 0 9 0;
#X connect 16 0 34 0;
#X connect 17 0 34 0;
#X connect 19 0 20 0;
#X connect 20 0 33 0;
#X connect 21 0 23 0;
#X connect 22 0 33 0;
#X connect 23 0 31 0;
#X connect 23 1 24 0;
#X connect 24 0 30 0;
#X connect 24 0 31 1;
#X connect 25 1 42 0;
#X connect 26 0 11 0;
#X connect 26 1 37 0;
#X connect 27 0 28 0;
#X connect 28 0 32 0;
#X connect 28 1 29 0;
#X connect 29 0 30 1;
#X connect 29 0 32 1;
#X connect 30 0 14 0;
#X connect 31 0 22 0;
#X connect 32 0 22 0;
#X connect 33 0 25 0;
#X connect 34 0 40 0;
#X connect 35 0 6 1;
#X connect 36 0 8 1;
#X connect 36 0 39 0;
#X connect 37 0 8 0;
#X connect 40 0 0 0;
#X connect 40 0 38 0;
#X connect 41 0 10 0;
#X connect 42 0 2 0;
