#N canvas 36 114 319 192 10;
#X obj 65 167 dac~;
#X obj 144 132 *~ 1;
#X obj 6 134 *~ 1;
#X obj 7 71 osc~ 440;
#X obj 145 69 osc~ 660;
#X obj 77 70 adc~ 1;
#X obj 27 114 r left;
#X obj 97 95 r mic;
#X obj 165 111 r right;
#X obj 71 6 r test;
#X obj 145 88 *~ 0.5;
#X obj 7 90 *~ 0.5;
#X obj 7 6 r osc1;
#X obj 7 27 * 127;
#X obj 7 48 mtof;
#X obj 145 27 * 127;
#X obj 145 48 mtof;
#X obj 145 6 r osc2;
#X obj 71 29 s webkit;
#X obj 76 116 *~ 0;
#X connect 1 0 0 1;
#X connect 2 0 0 0;
#X connect 3 0 11 0;
#X connect 4 0 10 0;
#X connect 5 0 19 0;
#X connect 6 0 2 1;
#X connect 7 0 19 1;
#X connect 8 0 1 1;
#X connect 9 0 18 0;
#X connect 10 0 1 0;
#X connect 11 0 2 0;
#X connect 12 0 13 0;
#X connect 13 0 14 0;
#X connect 14 0 3 0;
#X connect 15 0 16 0;
#X connect 16 0 4 0;
#X connect 17 0 15 0;
#X connect 19 0 0 0;
#X connect 19 0 0 1;
